<svg xmlns="http://www.w3.org/2000/svg" viewBox="0 0 48 48" width="48" height="48">
  <defs>
    <style>
      .icon-color { fill: #4A90D9; }
      @media (prefers-color-scheme: dark) {
        .icon-color { fill: #6BA3E8; }
      }
    </style>
  </defs>
  
  <!-- Book outline -->
  <path class="icon-color" d="M10 6 C10 4.9 10.9 4 12 4 L36 4 C37.1 4 38 4.9 38 6 L38 42 C38 43.1 37.1 44 36 44 L12 44 C10.9 44 10 43.1 10 42 Z" fill="none" stroke="currentColor" stroke-width="2"/>
  
  <!-- Book spine -->
  <line x1="14" y1="4" x2="14" y2="44" stroke="currentColor" stroke-width="2"/>
  
  <!-- Neural network nodes -->
  <circle class="icon-color" cx="24" cy="14" r="2.5"/>
  <circle class="icon-color" cx="18" cy="24" r="2.5"/>
  <circle class="icon-color" cx="24" cy="24" r="2.5"/>
  <circle class="icon-color" cx="30" cy="24" r="2.5"/>
  <circle class="icon-color" cx="24" cy="34" r="2.5"/>
  
  <!-- Neural network connections -->
  <line x1="24" y1="14" x2="18" y2="24" stroke="currentColor" stroke-width="1.5" opacity="0.6"/>
  <line x1="24" y1="14" x2="24" y2="24" stroke="currentColor" stroke-width="1.5" opacity="0.6"/>
  <line x1="24" y1="14" x2="30" y2="24" stroke="currentColor" stroke-width="1.5" opacity="0.6"/>
  <line x1="18" y1="24" x2="24" y2="34" stroke="currentColor" stroke-width="1.5" opacity="0.6"/>
  <line x1="24" y1="24" x2="24" y2="34" stroke="currentColor" stroke-width="1.5" opacity="0.6"/>
  <line x1="30" y1="24" x2="24" y2="34" stroke="currentColor" stroke-width="1.5" opacity="0.6"/>
</svg>
